<svg width="133" height="42" viewBox="0 0 133 42" fill="none" xmlns="http://www.w3.org/2000/svg">
<path d="M57.8103 29.2583C61.9548 29.2583 63.7968 27.1655 63.7968 24.6398C63.7968 22.2103 62.4638 20.6949 59.41 20.0694L56.6469 19.4921C54.4171 19.011 53.7627 18.6021 53.7627 17.1348C53.7627 15.7156 54.7322 15.042 57.1317 15.042C60.0401 15.042 60.9127 16.0764 60.9127 18.0489V18.3135H63.4818V18.0248C63.4818 15.1623 61.6882 12.6606 57.2044 12.6606C53.0114 12.6606 51.1452 14.8737 51.1452 17.2551C51.1452 19.8048 52.6478 21.1519 55.4351 21.6811L58.1981 22.2344C60.6945 22.7395 61.1793 23.2687 61.1793 24.736C61.1793 26.2274 60.3067 26.8769 57.9073 26.8769C54.5141 26.8769 53.6658 25.8666 53.6658 23.8701V23.6055H51.0967V24.0144C51.0967 27.1174 53.1326 29.2583 57.8103 29.2583Z" fill="#2D2D2D"/>
<path d="M68.4144 29.0177V22.0419C68.4144 19.877 69.3354 19.0592 71.3228 19.0592C73.5041 19.0592 74.1585 19.9492 74.1585 22.09V29.0177H76.7761V22.066C76.7761 19.877 77.6971 19.0592 79.6846 19.0592C81.8659 19.0592 82.5203 19.9492 82.5203 22.09V29.0177H85.1379V21.5127C85.1379 18.7946 83.7564 16.8221 80.654 16.8221C78.2788 16.8221 77.0427 18.0489 76.4853 19.2997H76.4126C75.8309 17.7843 74.5221 16.8221 72.4135 16.8221C70.111 16.8221 68.8506 18.0248 68.2932 19.2997H68.1962V17.0626H65.7968V29.0177H68.4144Z" fill="#2D2D2D"/>
<path d="M90.8921 29.2583C93.1703 29.2583 94.5518 28.272 95.2547 27.1415H95.3759V29.0177H97.7996V21.7533C97.7996 18.8427 96.103 16.8221 92.7341 16.8221C89.5106 16.8221 87.4019 18.7464 87.4019 21.4165V21.657H89.9226V21.2962C89.9226 19.7086 90.6739 19.1073 92.5887 19.1073C94.4791 19.1073 95.3032 19.6365 95.3032 21.4165V22.066L91.086 22.6914C88.5168 23.0522 87.0626 24.0866 87.0626 26.059C87.0626 28.1518 88.735 29.2583 90.8921 29.2583ZM89.6075 25.8666C89.6075 24.9766 90.0922 24.6639 91.4738 24.4714L95.3032 23.8941V24.1106C95.3032 26.5161 93.4369 27.1896 91.7404 27.1896C90.2134 27.1896 89.6075 26.8047 89.6075 25.8666Z" fill="#2D2D2D"/>
<path d="M102.924 29.0177V12.9012H100.306V29.0177H102.924Z" fill="#2D2D2D"/>
<path d="M108.202 29.0177V12.9012H105.584V29.0177H108.202Z" fill="#2D2D2D"/>
<path d="M116.029 29.2583C119.277 29.2583 121.434 27.6707 121.434 25.2171V25.0006H118.841V25.1931C118.841 26.2755 118.065 26.949 116.054 26.949C113.533 26.949 112.733 25.8425 112.636 23.6536H121.386C121.458 23.2928 121.531 22.6433 121.531 22.0179C121.531 18.7464 119.253 16.8221 116.005 16.8221C112.418 16.8221 110.188 19.3238 110.188 23.0282C110.188 26.7566 112.055 29.2583 116.029 29.2583ZM115.957 19.011C118.017 19.011 119.132 19.877 119.035 21.9216H112.66C112.806 20.0694 113.678 19.011 115.957 19.011Z" fill="#2D2D2D"/>
<path d="M126.238 29.0177V21.2241C126.238 19.6365 126.819 19.0351 128.395 19.0351C129.922 19.0351 130.382 19.6124 130.382 21.2V21.6811H133V20.8873C133 18.6502 132.03 16.8221 129.509 16.8221C127.74 16.8221 126.625 17.7843 126.141 18.8908H126.019V16.9905H123.62V29.0177H126.238Z" fill="#2D2D2D"/>
<path d="M0.922875 10.1542C1.61861 5.35235 5.39903 1.63985 10.2373 0.949569C13.7454 0.449073 17.8227 0 21.1593 0C24.4958 0 28.5731 0.449073 32.0812 0.949569C36.9195 1.63985 40.6999 5.35235 41.3956 10.1542C41.8861 13.5395 42.3185 17.5127 42.3185 21C42.3185 24.502 41.8825 28.494 41.3894 31.8885C40.6952 36.6682 36.9429 40.3716 32.127 41.0606C28.6572 41.557 24.5974 42 21.1593 42C17.7211 42 13.6613 41.557 10.1915 41.0606C5.3756 40.3716 1.6233 36.6682 0.929076 31.8885C0.436032 28.494 0 24.502 0 21C0 17.5127 0.432383 13.5395 0.922875 10.1542Z" fill="#2D2D2D"/>
<path d="M21.8022 32.5683C27.6358 32.5683 30.2285 29.6227 30.2285 26.0677C30.2285 22.648 28.3522 20.515 24.0538 19.6347L20.1647 18.8221C17.0262 18.145 16.1051 17.5694 16.1051 15.5041C16.1051 13.5065 17.4697 12.5584 20.847 12.5584C24.9408 12.5584 26.1689 14.0143 26.1689 16.7907V17.1631H29.785V16.7568C29.785 12.7277 27.2605 9.20654 20.9494 9.20654C15.0476 9.20654 12.4208 12.3214 12.4208 15.6734C12.4208 19.2623 14.5359 21.1583 18.459 21.9032L22.3481 22.6819C25.8618 23.3929 26.5441 24.1378 26.5441 26.2031C26.5441 28.3023 25.316 29.2164 21.9387 29.2164C17.1627 29.2164 15.9687 27.7944 15.9687 24.9842V24.6118H12.3525V25.1874C12.3525 29.555 15.2181 32.5683 21.8022 32.5683Z" fill="url(#paint0_linear_59_97)"/>
<path fill-rule="evenodd" clip-rule="evenodd" d="M13.9411 10.5729C15.5199 9.21683 17.8588 8.3999 20.9501 8.3999C24.2572 8.3999 26.6931 9.32536 28.3037 10.8951C29.9126 12.4631 30.598 14.5767 30.598 16.7563V17.9687H25.3574V16.7902C25.3574 15.5027 25.0715 14.7281 24.509 14.2396C23.9154 13.7242 22.8329 13.3641 20.8478 13.3641C19.2015 13.3641 18.2111 13.6017 17.6493 13.9599C17.1665 14.2677 16.9181 14.7174 16.9181 15.5036C16.9181 16.4064 17.1113 16.7763 17.4613 17.0499C17.9152 17.4047 18.7452 17.6901 20.3354 18.0333C20.3363 18.0335 20.3371 18.0337 20.338 18.0339L24.2187 18.8447C24.2191 18.8448 24.2195 18.8449 24.2199 18.8449C26.4621 19.3043 28.1855 20.112 29.3477 21.3486C30.5253 22.6014 31.0415 24.2031 31.0415 26.0672C31.0415 28.0482 30.3128 29.9078 28.7346 31.2607C27.1677 32.604 24.8508 33.374 21.803 33.374C18.3993 33.374 15.821 32.5963 14.0829 31.1293C12.3248 29.6455 11.541 27.554 11.541 25.1868V23.8051H16.7816V24.9837C16.7816 26.2927 17.0605 27.0425 17.669 27.5227C18.3366 28.0496 19.5865 28.4098 21.9394 28.4098C23.5946 28.4098 24.5353 28.1776 25.0527 27.8293C25.4884 27.5359 25.7326 27.0825 25.7326 26.2026C25.7326 25.2464 25.5719 24.8402 25.2275 24.539C24.7984 24.1637 23.953 23.8288 22.1875 23.4715C22.1872 23.4714 22.1868 23.4713 22.1865 23.4713L18.3031 22.6937C16.258 22.3049 14.5716 21.5969 13.3939 20.4231C12.1945 19.2278 11.6092 17.6366 11.6092 15.6728C11.6092 13.7799 12.3558 11.9345 13.9411 10.5729ZM15.0042 11.792C13.8005 12.8259 13.2337 14.2139 13.2337 15.6728C13.2337 17.2981 13.706 18.4493 14.545 19.2854C15.4048 20.1423 16.7361 20.7546 18.6124 21.1109L18.6164 21.1116L22.5111 21.8915C24.2587 22.2451 25.511 22.6381 26.3015 23.3293C27.1766 24.0946 27.3571 25.0935 27.3571 26.2026C27.3571 27.4219 26.9872 28.4751 25.9646 29.1636C25.0235 29.7971 23.6616 30.022 21.9394 30.022C19.5163 30.022 17.7812 29.6712 16.6578 28.7846C15.5902 27.9419 15.2272 26.7465 15.1667 25.4174H13.1684C13.2168 27.3105 13.8656 28.8295 15.1353 29.9011C16.476 31.0327 18.6225 31.7617 21.803 31.7617C24.5887 31.7617 26.4849 31.0588 27.6727 30.0406C28.8493 29.0319 29.417 27.6411 29.417 26.0672C29.417 24.5116 28.995 23.3369 28.1598 22.4483C27.3095 21.5436 25.946 20.8447 23.8904 20.4237L23.8872 20.423L19.9929 19.6094C18.4463 19.2757 17.2471 18.9348 16.4561 18.3164C15.5609 17.6166 15.2936 16.666 15.2936 15.5036C15.2936 14.2921 15.7274 13.269 16.7713 12.6034C17.7361 11.9882 19.1167 11.7518 20.8478 11.7518C22.9563 11.7518 24.5347 12.1197 25.5787 13.0262C26.5482 13.8682 26.9103 15.042 26.972 16.3565H28.9643C28.8863 14.6679 28.3072 13.1582 27.1655 12.0454C25.9361 10.8473 23.9541 10.0122 20.9501 10.0122C18.1396 10.0122 16.2142 10.7527 15.0042 11.792Z" fill="url(#paint1_linear_59_97)"/>
<defs>
<linearGradient id="paint0_linear_59_97" x1="21.2905" y1="9.20654" x2="21.2905" y2="32.5683" gradientUnits="userSpaceOnUse">
<stop offset="0.349604" stop-color="white"/>
<stop offset="1" stop-color="white" stop-opacity="0.89"/>
</linearGradient>
<linearGradient id="paint1_linear_59_97" x1="21.2068" y1="13.9569" x2="21.2068" y2="41.9029" gradientUnits="userSpaceOnUse">
<stop offset="0.24162" stop-color="white" stop-opacity="0.98"/>
<stop offset="0.707081" stop-color="white" stop-opacity="0"/>
</linearGradient>
</defs>
</svg>
