<svg width="48" height="34" viewBox="0 0 48 34" fill="none" xmlns="http://www.w3.org/2000/svg">
<path fill-rule="evenodd" clip-rule="evenodd" d="M33.4963 1.66082C30.4232 1.05673 27.2379 1.36684 24.3436 2.55161C21.4493 3.73635 18.9768 5.7421 17.2379 8.31398C15.499 10.8858 14.5714 13.9085 14.5714 17C14.5714 17.3756 14.267 17.68 13.8914 17.68C13.5159 17.68 13.2114 17.3756 13.2114 17C13.2114 15.055 13.5489 13.1355 14.1989 11.3219C13.5528 11.2087 12.8974 11.1518 12.2403 11.152H12.24C9.35186 11.152 6.58362 12.2859 4.54382 14.3017C2.5043 16.3172 1.36 19.0491 1.36 21.896C1.36 24.7429 2.5043 27.4748 4.54382 29.4903C6.58362 31.5061 9.35186 32.64 12.24 32.64H30.4057C33.5392 32.64 36.6017 31.7217 39.2059 30.0021C41.8099 28.2826 43.8383 25.8395 45.0358 22.9825C46.2332 20.1257 46.5464 16.9826 45.936 13.9503C45.3257 10.918 43.819 8.13152 41.6051 5.94369C39.3911 3.75578 36.5694 2.26491 33.4963 1.66082ZM14.7204 10.0359C15.1114 9.17486 15.576 8.34382 16.1113 7.55222C18.0016 4.75648 20.6874 2.57868 23.8284 1.29298C26.9692 0.00729974 30.4249 -0.32897 33.7586 0.32636C37.0925 0.981698 40.1559 2.59948 42.5611 4.97635C44.9663 7.35332 46.6052 10.3827 47.2693 13.682C47.9334 16.9812 47.5925 20.4009 46.2901 23.5083C44.9877 26.6155 42.7827 29.27 39.9552 31.137C37.1279 33.004 33.8046 34 30.4057 34H12.24C8.99633 34 5.88391 32.7267 3.58787 30.4577C1.29155 28.1884 0 25.1088 0 21.896C0 18.6832 1.29155 15.6037 3.58787 13.3343C5.88385 11.0654 8.99617 9.79207 12.2397 9.79201M14.7204 10.0359C13.9042 9.87351 13.0734 9.79171 12.24 9.79201L14.7204 10.0359Z" fill="white"/>
<path fill-rule="evenodd" clip-rule="evenodd" d="M35.2927 11.5928C35.6683 11.5928 35.9727 11.8972 35.9727 12.2728V15.4603C35.9727 15.8358 35.6683 16.1403 35.2927 16.1403H32.1052C31.7297 16.1403 31.4252 15.8358 31.4252 15.4603C31.4252 15.0847 31.7297 14.7803 32.1052 14.7803H34.6127V12.2728C34.6127 11.8972 34.9172 11.5928 35.2927 11.5928Z" fill="white"/>
<path fill-rule="evenodd" clip-rule="evenodd" d="M28.8978 12.1774C28.2199 12.1774 27.5487 12.311 26.9225 12.5707C26.2964 12.8303 25.7275 13.2108 25.2485 13.6905C24.9832 13.9563 24.5526 13.9566 24.2869 13.6912C24.0211 13.4259 24.0208 12.9953 24.2862 12.7296C24.8915 12.1234 25.6103 11.6425 26.4016 11.3144C27.1929 10.9863 28.0412 10.8174 28.8978 10.8174C29.7544 10.8174 30.6027 10.9863 31.394 11.3144C32.185 11.6424 32.9037 12.1231 33.5089 12.729C33.5091 12.7292 33.5093 12.7294 33.5095 12.7296L35.7662 14.9797C36.0322 15.2448 36.0328 15.6754 35.7676 15.9413C35.5025 16.2073 35.0719 16.2079 34.806 15.9428L32.5482 13.6916L32.5471 13.6905C32.0681 13.2108 31.4993 12.8303 30.8731 12.5707C30.2469 12.311 29.5757 12.1774 28.8978 12.1774Z" fill="white"/>
<path fill-rule="evenodd" clip-rule="evenodd" d="M21.8295 19.2205C21.8295 18.845 22.134 18.5405 22.5095 18.5405H25.697C26.0726 18.5405 26.377 18.845 26.377 19.2205C26.377 19.5961 26.0726 19.9005 25.697 19.9005H23.1895V22.408C23.1895 22.7836 22.8851 23.088 22.5095 23.088C22.134 23.088 21.8295 22.7836 21.8295 22.408V19.2205Z" fill="white"/>
<path fill-rule="evenodd" clip-rule="evenodd" d="M22.028 18.7404C22.2932 18.4745 22.7237 18.4738 22.9897 18.739L25.2485 20.9912C25.7275 21.4709 26.2964 21.8514 26.9225 22.1111C27.5487 22.3707 28.2199 22.5044 28.8978 22.5044C29.5757 22.5044 30.2469 22.3707 30.8731 22.1111C31.4993 21.8514 32.0681 21.4709 32.5471 20.9912C32.8125 20.7255 33.243 20.7252 33.5088 20.9905C33.7745 21.2559 33.7748 21.6864 33.5095 21.9522C32.9042 22.5584 32.1853 23.0393 31.394 23.3674C30.6027 23.6955 29.7544 23.8644 28.8978 23.8644C28.0412 23.8644 27.1929 23.6955 26.4016 23.3674C25.6105 23.0393 24.8918 22.5586 24.2867 21.9527C24.2865 21.9525 24.2863 21.9523 24.2862 21.9522L22.0294 19.7021C21.7635 19.4369 21.7628 19.0064 22.028 18.7404Z" fill="white"/>
</svg>
