<svg width="48" height="46" viewBox="0 0 48 46" fill="none" xmlns="http://www.w3.org/2000/svg">
<path fill-rule="evenodd" clip-rule="evenodd" d="M0 4.80012C0 2.14909 2.14909 0 4.80012 0H43.2011C45.8521 0 48.0012 2.14909 48.0012 4.80012V37.7152C48.0012 40.3662 45.8521 42.5153 43.2011 42.5153H41.1439C40.7652 42.5153 40.4581 42.2083 40.4581 41.8296C40.4581 41.4509 40.7652 41.1439 41.1439 41.1439H43.2011C45.0947 41.1439 46.6297 39.6088 46.6297 37.7152V4.80012C46.6297 2.90652 45.0947 1.37146 43.2011 1.37146H4.80012C2.90652 1.37146 1.37146 2.90653 1.37146 4.80012V37.7152C1.37146 39.6088 2.90652 41.1439 4.80012 41.1439H30.8579C31.2366 41.1439 31.5436 41.4509 31.5436 41.8296C31.5436 42.2083 31.2366 42.5153 30.8579 42.5153H4.80012C2.14909 42.5153 0 40.3662 0 37.7152V4.80012Z" fill="white"/>
<path fill-rule="evenodd" clip-rule="evenodd" d="M19.7325 20.8256C19.9713 21.1195 19.9266 21.5514 19.6327 21.7902L14.8019 25.7153L19.6327 29.6403C19.9266 29.8791 19.9713 30.311 19.7325 30.6049C19.4937 30.8989 19.0618 30.9435 18.7679 30.7047L13.282 26.2475C13.1217 26.1173 13.0287 25.9218 13.0287 25.7153C13.0287 25.5088 13.1217 25.3133 13.282 25.1831L18.7679 20.7258C19.0618 20.487 19.4937 20.5317 19.7325 20.8256Z" fill="white"/>
<path fill-rule="evenodd" clip-rule="evenodd" d="M25.5053 17.4993C25.8766 17.5736 26.1175 17.9348 26.0432 18.3062L22.9574 33.7351C22.8831 34.1065 22.5219 34.3473 22.1505 34.2731C21.7791 34.1988 21.5383 33.8375 21.6126 33.4662L24.6984 18.0372C24.7726 17.6659 25.1339 17.425 25.5053 17.4993Z" fill="white"/>
<path fill-rule="evenodd" clip-rule="evenodd" d="M27.9259 20.8256C27.6871 21.1195 27.7318 21.5514 28.0257 21.7902L32.8565 25.7153L28.0257 29.6403C27.7318 29.8791 27.6871 30.311 27.9259 30.6049C28.1647 30.8989 28.5966 30.9435 28.8905 30.7047L34.3764 26.2475C34.5366 26.1173 34.6297 25.9218 34.6297 25.7153C34.6297 25.5088 34.5366 25.3133 34.3764 25.1831L28.8905 20.7258C28.5966 20.487 28.1647 20.5317 27.9259 20.8256Z" fill="white"/>
<path fill-rule="evenodd" clip-rule="evenodd" d="M39.0773 37.8967C39.3556 38.1536 39.3729 38.5874 39.1161 38.8657L33.4192 45.0373C33.1623 45.3156 32.7285 45.3329 32.4502 45.076C32.1719 44.8192 32.1546 44.3853 32.4115 44.107L38.1083 37.9355C38.3652 37.6572 38.799 37.6398 39.0773 37.8967Z" fill="white"/>
<path fill-rule="evenodd" clip-rule="evenodd" d="M32.4515 37.8967C32.1732 38.1536 32.1559 38.5874 32.4127 38.8657L38.1096 45.0373C38.3665 45.3156 38.8003 45.3329 39.0786 45.076C39.3569 44.8192 39.3742 44.3853 39.1173 44.107L33.4205 37.9355C33.1636 37.6572 32.7298 37.6398 32.4515 37.8967Z" fill="white"/>
<path fill-rule="evenodd" clip-rule="evenodd" d="M0.684082 11.6577H47.3138V13.0292H0.684082V11.6577Z" fill="white"/>
<path fill-rule="evenodd" clip-rule="evenodd" d="M5.82822 5.48621C5.26014 5.48621 4.79962 5.94673 4.79962 6.51481C4.79962 7.08288 5.26014 7.5434 5.82822 7.5434C6.3963 7.5434 6.85682 7.08288 6.85682 6.51481C6.85682 5.94673 6.3963 5.48621 5.82822 5.48621ZM3.42816 6.51481C3.42816 5.18929 4.5027 4.11475 5.82822 4.11475C7.15374 4.11475 8.22828 5.18929 8.22828 6.51481C8.22828 7.84032 7.15374 8.91487 5.82822 8.91487C4.5027 8.91487 3.42816 7.84032 3.42816 6.51481Z" fill="white"/>
<path fill-rule="evenodd" clip-rule="evenodd" d="M13.3726 5.48621C12.8045 5.48621 12.344 5.94673 12.344 6.51481C12.344 7.08288 12.8045 7.5434 13.3726 7.5434C13.9407 7.5434 14.4012 7.08288 14.4012 6.51481C14.4012 5.94673 13.9407 5.48621 13.3726 5.48621ZM10.9725 6.51481C10.9725 5.18929 12.0471 4.11475 13.3726 4.11475C14.6981 4.11475 15.7727 5.18929 15.7727 6.51481C15.7727 7.84032 14.6981 8.91487 13.3726 8.91487C12.0471 8.91487 10.9725 7.84032 10.9725 6.51481Z" fill="white"/>
<path fill-rule="evenodd" clip-rule="evenodd" d="M20.915 5.48621C20.3469 5.48621 19.8864 5.94673 19.8864 6.51481C19.8864 7.08288 20.3469 7.5434 20.915 7.5434C21.483 7.5434 21.9435 7.08288 21.9435 6.51481C21.9435 5.94673 21.483 5.48621 20.915 5.48621ZM18.5149 6.51481C18.5149 5.18929 19.5894 4.11475 20.915 4.11475C22.2405 4.11475 23.315 5.18929 23.315 6.51481C23.315 7.84032 22.2405 8.91487 20.915 8.91487C19.5894 8.91487 18.5149 7.84032 18.5149 6.51481Z" fill="white"/>
</svg>
