<svg width="48" height="34" viewBox="0 0 48 34" fill="none" xmlns="http://www.w3.org/2000/svg">
<path fill-rule="evenodd" clip-rule="evenodd" d="M0 4.57692C0 2.04916 2.04916 0 4.57692 0H42.5C45.0278 0 47.0769 2.04916 47.0769 4.57692V29.4231C47.0769 31.9508 45.0278 34 42.5 34H4.57692C2.04916 34 0 31.9508 0 29.4231V4.57692ZM4.57692 1.30769C2.77138 1.30769 1.30769 2.77138 1.30769 4.57692V29.4231C1.30769 31.2286 2.77138 32.6923 4.57692 32.6923H42.5C44.3055 32.6923 45.7692 31.2286 45.7692 29.4231V4.57692C45.7692 2.77138 44.3055 1.30769 42.5 1.30769H4.57692Z" fill="white"/>
<path fill-rule="evenodd" clip-rule="evenodd" d="M12.4076 9.34532C12.663 9.08997 13.077 9.08997 13.3323 9.34532L15.815 11.828C18.0305 10.423 20.6585 9.60938 23.4749 9.60938C26.2912 9.60938 28.9193 10.423 31.1348 11.828L33.6175 9.34532C33.8728 9.08997 34.2868 9.08997 34.5422 9.34532C34.7975 9.60066 34.7975 10.0147 34.5422 10.27L32.2219 12.5902C35.6113 15.2083 37.7959 19.3142 37.7959 23.9304C37.7959 24.2915 37.5032 24.5843 37.1421 24.5843H9.80769C9.44658 24.5843 9.15384 24.2915 9.15384 23.9304C9.15384 19.3142 11.3385 15.2083 14.7278 12.5902L12.4076 10.27C12.1523 10.0147 12.1523 9.60066 12.4076 9.34532ZM23.4749 10.9171C20.7362 10.9171 18.1968 11.7624 16.1011 13.2063C12.8612 15.4385 10.6844 19.0984 10.4777 23.2766H36.4721C36.2654 19.0984 34.0886 15.4385 30.8487 13.2063C28.7529 11.7624 26.2136 10.9171 23.4749 10.9171Z" fill="white"/>
<path d="M28.9422 18.0083C28.9422 18.7631 28.3303 19.375 27.5755 19.375C26.8207 19.375 26.2088 18.7631 26.2088 18.0083C26.2088 17.2535 26.8207 16.6416 27.5755 16.6416C28.3303 16.6416 28.9422 17.2535 28.9422 18.0083Z" fill="white"/>
<path d="M20.741 18.0083C20.741 18.7631 20.1291 19.375 19.3743 19.375C18.6195 19.375 18.0076 18.7631 18.0076 18.0083C18.0076 17.2535 18.6195 16.6416 19.3743 16.6416C20.1291 16.6416 20.741 17.2535 20.741 18.0083Z" fill="white"/>
</svg>
