<svg width="48" height="34" viewBox="0 0 48 34" fill="none" xmlns="http://www.w3.org/2000/svg">
<path fill-rule="evenodd" clip-rule="evenodd" d="M0 4.57692C0 2.04916 2.04916 0 4.57692 0H42.5C45.0278 0 47.0769 2.04916 47.0769 4.57692V29.4231C47.0769 31.9508 45.0278 34 42.5 34H4.57692C2.04916 34 0 31.9508 0 29.4231V4.57692ZM4.57692 1.30769C2.77138 1.30769 1.30769 2.77138 1.30769 4.57692V29.4231C1.30769 31.2286 2.77138 32.6923 4.57692 32.6923H42.5C44.3055 32.6923 45.7692 31.2286 45.7692 29.4231V4.57692C45.7692 2.77138 44.3055 1.30769 42.5 1.30769H4.57692Z" fill="white"/>
</svg>
